<?xml version="1.0" encoding="UTF-8" standalone="no"?>
<!DOCTYPE svg PUBLIC "-//W3C//DTD SVG 20010904//EN"
              "http://www.w3.org/TR/2001/REC-SVG-20010904/DTD/svg10.dtd">

<svg xmlns="http://www.w3.org/2000/svg"
     width="3.2in" height="0.77in"
     viewBox="0 0 960 231">
  <path id="Selection"
        fill="black" stroke="black" stroke-width="1"
        d="M 353.00,0.00
           C 353.00,0.00 355.00,0.00 355.00,0.00
             355.00,0.00 356.00,29.00 356.00,29.00
             356.00,29.00 357.00,5.00 357.00,5.00
             357.00,11.48 358.52,26.07 355.00,31.00
             358.46,33.33 358.59,36.25 360.00,40.00
             360.00,40.00 361.00,37.00 361.00,37.00
             361.00,37.00 363.00,41.00 363.00,41.00
             363.00,41.00 361.00,43.00 361.00,43.00
             361.00,43.00 366.00,45.00 366.00,45.00
             366.00,45.00 364.00,47.00 364.00,47.00
             369.93,50.72 368.00,61.71 368.00,68.00
             368.00,79.78 367.33,114.59 370.00,124.00
             370.00,124.00 371.00,107.00 371.00,107.00
             371.00,107.00 371.00,124.00 371.00,124.00
             371.00,124.00 377.00,125.00 377.00,125.00
             377.00,125.00 369.00,126.00 369.00,126.00
             369.00,126.00 385.00,127.00 385.00,127.00
             385.00,127.00 386.00,134.00 386.00,134.00
             386.00,134.00 387.00,127.00 387.00,127.00
             387.00,127.00 387.00,135.00 387.00,135.00
             387.00,135.00 390.00,136.00 390.00,136.00
             390.00,136.00 387.00,137.00 387.00,137.00
             387.00,137.00 394.00,139.00 394.00,139.00
             394.00,139.00 396.00,148.00 396.00,148.00
             396.00,148.00 398.00,146.00 398.00,146.00
             398.00,146.00 401.00,156.00 401.00,156.00
             401.00,156.00 398.00,157.00 398.00,157.00
             398.00,157.00 408.00,157.00 408.00,157.00
             408.00,157.00 409.00,178.00 409.00,178.00
             409.00,178.00 410.00,158.00 410.00,158.00
             410.00,158.00 411.00,160.00 411.00,160.00
             411.00,160.00 412.00,157.00 412.00,157.00
             412.00,157.00 413.00,160.00 413.00,160.00
             414.70,156.10 416.29,158.61 418.00,161.00
             418.00,161.00 419.00,158.00 419.00,158.00
             419.00,158.00 421.00,162.00 421.00,162.00
             421.00,162.00 417.00,163.00 417.00,163.00
             424.61,164.34 420.45,168.03 423.00,177.00
             423.00,177.00 424.00,164.00 424.00,164.00
             424.00,164.00 424.00,174.00 424.00,174.00
             424.00,174.00 434.00,172.00 434.00,172.00
             434.00,172.00 428.00,171.00 428.00,171.00
             428.00,171.00 432.00,171.00 432.00,171.00
             432.00,164.24 430.69,162.06 437.00,159.00
             437.00,159.00 436.00,156.00 436.00,156.00
             436.00,156.00 439.00,155.00 439.00,155.00
             435.76,152.09 437.00,146.05 437.00,142.00
             437.00,127.78 436.30,123.36 439.00,109.00
             439.00,109.00 453.00,107.00 453.00,107.00
             453.00,107.00 454.00,121.00 454.00,121.00
             454.00,121.00 455.00,107.00 455.00,107.00
             455.00,107.00 455.00,121.00 455.00,121.00
             455.00,121.00 461.00,121.00 461.00,121.00
             461.00,121.00 462.00,107.00 462.00,107.00
             462.00,107.00 462.00,123.00 462.00,123.00
             462.00,123.00 453.00,123.00 453.00,123.00
             453.00,123.00 463.00,124.00 463.00,124.00
             463.00,124.00 464.00,91.00 464.00,91.00
             473.13,89.36 481.86,89.79 491.00,91.00
             491.00,91.00 491.00,132.00 491.00,132.00
             491.00,132.00 492.00,154.00 492.00,154.00
             492.00,154.00 492.00,111.00 492.00,111.00
             492.00,111.00 493.00,91.00 493.00,91.00
             493.00,91.00 493.00,153.00 493.00,153.00
             493.00,153.00 498.00,153.00 498.00,153.00
             498.00,146.55 497.12,125.73 499.00,121.00
             499.00,121.00 500.00,151.00 500.00,151.00
             500.00,151.00 500.00,120.00 500.00,120.00
             500.00,120.00 512.00,119.00 512.00,119.00
             512.00,119.00 537.00,119.00 537.00,119.00
             537.00,119.00 538.00,144.00 538.00,144.00
             538.00,144.00 539.00,119.00 539.00,119.00
             539.00,119.00 539.00,143.00 539.00,143.00
             539.00,143.00 546.00,144.00 546.00,144.00
             546.00,144.00 539.00,145.00 539.00,145.00
             545.62,145.09 546.06,145.46 551.00,150.00
             549.93,144.02 549.07,141.57 552.00,136.00
             552.00,136.00 558.00,137.00 558.00,137.00
             558.00,137.00 559.00,140.00 559.00,140.00
             559.00,140.00 560.00,129.00 560.00,129.00
             560.00,129.00 561.00,140.00 561.00,140.00
             561.00,133.78 559.49,129.80 565.00,126.00
             565.00,126.00 562.00,125.00 562.00,125.00
             562.00,125.00 567.00,124.00 567.00,124.00
             564.95,121.12 564.71,120.34 566.00,117.00
             566.00,117.00 567.00,122.00 567.00,122.00
             567.00,122.00 567.00,117.00 567.00,117.00
             567.00,117.00 583.00,116.00 583.00,116.00
             583.00,116.00 584.00,117.00 584.00,117.00
             584.00,117.00 584.00,124.00 584.00,124.00
             584.00,124.00 585.00,119.00 585.00,119.00
             585.00,119.00 585.00,124.00 585.00,124.00
             585.00,124.00 600.00,125.00 600.00,125.00
             600.00,125.00 601.00,137.00 601.00,137.00
             601.00,137.00 604.00,138.00 604.00,138.00
             604.00,138.00 605.00,110.00 605.00,110.00
             605.00,110.00 606.00,138.00 606.00,138.00
             606.00,138.00 606.00,116.00 606.00,116.00
             606.12,109.40 607.64,109.09 614.00,109.00
             614.00,109.00 644.00,110.00 644.00,110.00
             644.00,110.00 645.00,113.00 645.00,113.00
             645.00,113.00 646.00,104.00 646.00,104.00
             646.00,104.00 647.00,110.00 647.00,110.00
             647.00,110.00 648.00,99.00 648.00,99.00
             648.00,99.00 650.00,99.00 650.00,99.00
             650.00,99.00 652.00,110.00 652.00,110.00
             652.00,110.00 653.00,106.00 653.00,106.00
             653.00,106.00 656.66,123.04 656.66,123.04
             656.66,123.04 658.00,138.00 658.00,138.00
             658.00,138.00 659.00,122.00 659.00,122.00
             659.00,122.00 660.00,139.00 660.00,139.00
             660.00,139.00 657.00,140.00 657.00,140.00
             657.00,140.00 661.00,144.00 661.00,144.00
             661.00,144.00 662.00,140.00 662.00,140.00
             664.87,148.97 672.79,142.76 678.69,145.60
             680.75,146.59 681.26,149.03 682.00,151.00
             682.00,151.00 682.00,146.00 682.00,146.00
             684.45,144.89 683.96,142.46 684.00,140.00
             684.07,134.49 683.65,132.57 685.00,127.00
             685.00,127.00 692.44,120.05 692.44,120.05
             692.44,120.05 707.00,117.00 707.00,117.00
             707.00,117.00 706.00,113.00 706.00,113.00
             706.00,113.00 717.00,112.00 717.00,112.00
             717.00,112.00 718.00,119.00 718.00,119.00
             718.00,119.00 719.00,113.00 719.00,113.00
             719.00,113.00 720.90,125.00 720.90,125.00
             720.90,125.00 720.90,139.00 720.90,139.00
             720.90,139.00 724.00,140.00 724.00,140.00
             724.00,140.00 721.00,141.00 721.00,141.00
             726.51,142.34 732.53,142.55 738.00,141.00
             738.00,141.00 725.00,140.00 725.00,140.00
             725.00,140.00 736.00,140.00 736.00,140.00
             736.00,140.00 737.00,136.00 737.00,136.00
             737.00,136.00 738.00,140.00 738.00,140.00
             738.00,140.00 738.00,135.00 738.00,135.00
             738.00,135.00 745.00,134.00 745.00,134.00
             745.00,134.00 743.00,132.00 743.00,132.00
             749.77,128.83 755.53,128.87 762.00,133.00
             762.00,133.00 758.00,134.00 758.00,134.00
             758.00,134.00 763.00,134.00 763.00,134.00
             763.00,134.00 765.00,144.00 765.00,144.00
             765.00,144.00 766.00,138.00 766.00,138.00
             766.00,138.00 766.00,144.00 766.00,144.00
             773.46,144.12 789.29,143.90 796.00,142.00
             796.00,142.00 783.00,141.00 783.00,141.00
             783.00,141.00 796.00,141.00 796.00,141.00
             796.00,141.00 797.00,122.00 797.00,122.00
             797.00,122.00 798.00,144.00 798.00,144.00
             798.00,144.00 798.00,122.00 798.00,122.00
             798.00,122.00 816.00,118.00 816.00,118.00
             816.00,118.00 813.00,117.00 813.00,117.00
             813.00,117.00 815.00,116.00 815.00,116.00
             815.00,116.00 815.00,115.00 815.00,115.00
             815.00,115.00 825.00,114.04 825.00,114.04
             835.53,113.62 837.04,116.48 844.03,118.34
             844.03,118.34 851.00,120.00 851.00,120.00
             851.00,120.00 842.00,121.00 842.00,121.00
             842.00,121.00 851.00,121.00 851.00,121.00
             851.00,121.00 852.00,141.00 852.00,141.00
             852.00,141.00 854.00,139.00 854.00,139.00
             854.00,139.00 855.00,142.00 855.00,142.00
             855.00,142.00 852.00,143.00 852.00,143.00
             852.00,143.00 854.41,144.59 854.41,144.59
             854.41,144.59 855.00,163.00 855.00,163.00
             855.00,163.00 856.00,177.00 856.00,177.00
             856.00,177.00 857.00,202.00 857.00,202.00
             857.00,195.44 856.11,173.76 858.00,169.00
             858.00,169.00 858.00,203.00 858.00,203.00
             858.00,203.00 861.00,204.00 861.00,204.00
             861.00,204.00 857.00,205.00 857.00,205.00
             857.00,205.00 876.00,207.00 876.00,207.00
             875.98,205.38 875.58,204.40 877.07,203.13
             878.18,202.18 882.48,201.52 884.00,201.29
             889.76,200.45 895.17,199.91 901.00,200.00
             908.57,200.13 907.97,201.86 908.00,215.00
             908.00,215.00 933.00,215.00 933.00,215.00
             930.31,211.31 935.27,210.19 938.02,209.73
             947.74,208.10 950.25,206.49 960.00,209.00
             960.00,209.00 960.00,229.00 960.00,229.00
             960.00,229.00 0.00,229.00 0.00,229.00
             0.00,229.00 0.00,196.00 0.00,196.00
             0.00,196.00 11.00,194.00 11.00,194.00
             11.00,194.00 7.00,193.00 7.00,193.00
             7.00,193.00 21.00,187.00 21.00,187.00
             19.61,184.24 20.85,180.77 22.00,178.00
             22.00,178.00 23.00,183.00 23.00,183.00
             23.00,183.00 24.00,167.00 24.00,167.00
             30.65,165.89 27.55,162.11 30.00,156.00
             30.00,156.00 31.00,163.00 31.00,163.00
             31.00,158.54 30.18,153.97 33.81,151.00
             33.81,151.00 33.81,157.00 33.81,157.00
             33.81,157.00 34.94,166.00 34.94,166.00
             34.94,166.00 34.94,174.00 34.94,174.00
             42.24,172.89 51.30,168.22 58.00,173.00
             58.00,173.00 58.00,171.00 58.00,171.00
             58.00,171.00 61.00,173.00 61.00,173.00
             61.00,173.00 59.00,175.00 59.00,175.00
             59.00,175.00 67.00,177.00 67.00,177.00
             65.63,179.01 67.69,182.27 69.00,184.00
             69.00,184.00 68.00,180.00 68.00,180.00
             68.00,180.00 84.00,179.00 84.00,179.00
             84.00,179.00 71.00,178.00 71.00,178.00
             86.20,178.00 78.70,175.71 89.00,174.00
             89.00,174.00 92.00,181.00 92.00,181.00
             92.00,181.00 94.00,163.00 94.00,163.00
             94.00,163.00 95.00,180.00 95.00,180.00
             95.00,180.00 95.00,156.00 95.00,156.00
             95.00,156.00 94.00,162.00 94.00,162.00
             94.00,162.00 96.00,152.00 96.00,152.00
             96.00,152.00 99.00,152.00 99.00,152.00
             97.97,148.36 97.58,146.59 99.00,143.00
             99.00,143.00 100.00,149.00 100.00,149.00
             100.00,149.00 101.00,133.00 101.00,133.00
             101.00,133.00 103.00,133.00 103.00,133.00
             103.00,133.00 104.00,143.00 104.00,143.00
             104.00,143.00 105.00,133.00 105.00,133.00
             105.00,133.00 105.00,147.00 105.00,147.00
             105.00,147.00 107.28,157.00 107.28,157.00
             107.28,157.00 110.00,176.00 110.00,176.00
             110.00,176.00 111.00,166.00 111.00,166.00
             111.00,171.89 110.59,175.46 113.00,181.00
             113.00,181.00 114.00,178.00 114.00,178.00
             114.00,178.00 115.00,181.00 115.00,181.00
             115.00,181.00 116.00,175.00 116.00,175.00
             116.00,175.00 125.00,175.00 125.00,175.00
             125.00,175.00 127.00,183.00 127.00,183.00
             127.00,183.00 128.00,179.00 128.00,179.00
             128.00,179.00 130.00,184.00 130.00,184.00
             130.00,184.00 125.00,185.00 125.00,185.00
             125.00,185.00 131.00,186.00 131.00,186.00
             131.00,186.00 132.00,179.00 132.00,179.00
             132.00,179.00 133.00,186.00 133.00,186.00
             133.00,186.00 134.00,173.00 134.00,173.00
             134.00,173.00 136.00,175.00 136.00,175.00
             138.42,169.17 142.23,174.48 153.00,170.00
             153.00,170.00 149.00,169.00 149.00,169.00
             149.00,169.00 153.00,169.00 153.00,169.00
             153.00,169.00 158.00,166.00 158.00,166.00
             158.00,166.00 154.00,165.00 154.00,165.00
             154.00,165.00 157.00,163.00 157.00,163.00
             157.00,163.00 157.00,165.00 157.00,165.00
             157.00,165.00 161.00,162.00 161.00,162.00
             161.00,162.00 158.00,161.00 158.00,161.00
             158.00,161.00 162.00,161.00 162.00,161.00
             162.00,161.00 163.00,158.00 163.00,158.00
             163.00,158.00 164.00,161.00 164.00,161.00
             164.56,159.14 164.68,157.96 166.31,156.60
             168.98,154.37 178.48,154.77 182.00,155.17
             186.81,155.72 190.58,157.74 188.00,163.00
             188.00,163.00 192.00,167.00 192.00,167.00
             192.00,167.00 193.00,164.00 193.00,164.00
             193.00,164.00 195.00,168.00 195.00,168.00
             195.00,168.00 191.00,169.00 191.00,169.00
             191.00,169.00 211.00,170.00 211.00,170.00
             211.00,170.00 212.00,179.00 212.00,179.00
             212.00,179.00 213.00,171.00 213.00,171.00
             213.00,171.00 214.00,179.00 214.00,179.00
             214.00,179.00 218.00,175.00 218.00,175.00
             218.00,175.00 215.00,174.00 215.00,174.00
             222.36,171.93 223.27,169.24 233.00,172.00
             235.84,164.41 233.79,153.91 242.09,150.60
             242.09,150.60 252.00,149.00 252.00,149.00
             252.00,149.00 243.00,148.00 243.00,148.00
             243.00,148.00 250.00,148.00 250.00,148.00
             250.00,148.00 251.00,126.00 251.00,126.00
             251.00,126.00 252.00,148.00 252.00,148.00
             252.00,148.00 252.00,132.00 252.00,132.00
             252.03,130.41 251.93,128.05 252.99,126.74
             254.37,125.04 257.03,125.11 259.00,125.01
             262.75,124.79 273.64,122.84 276.40,125.01
             277.95,126.24 278.39,130.88 279.00,133.00
             279.00,133.00 280.00,125.00 280.00,125.00
             280.00,125.00 281.00,131.00 281.00,131.00
             281.00,131.00 282.00,128.00 282.00,128.00
             288.18,126.72 289.37,123.18 293.00,122.26
             295.42,121.64 304.71,126.79 306.53,128.67
             307.93,130.12 308.39,132.15 309.00,134.00
             318.15,127.97 319.87,132.82 327.00,133.00
             327.00,133.00 331.00,137.00 331.00,137.00
             331.00,137.00 330.00,139.00 330.00,139.00
             330.00,139.00 333.00,145.00 333.00,145.00
             333.00,145.00 334.00,139.00 334.00,139.00
             334.00,139.00 336.00,148.00 336.00,148.00
             336.00,148.00 337.00,140.00 337.00,140.00
             337.00,140.00 338.00,152.00 338.00,152.00
             338.00,152.00 339.00,132.00 339.00,132.00
             339.00,132.00 340.00,86.00 340.00,86.00
             340.00,86.00 341.00,69.00 341.00,69.00
             341.00,69.00 341.60,48.27 341.60,48.27
             341.60,48.27 345.00,45.00 345.00,45.00
             345.00,45.00 342.00,44.00 342.00,44.00
             342.00,44.00 349.00,42.00 349.00,42.00
             347.21,37.69 350.06,32.48 350.70,28.00
             351.73,20.76 349.71,6.76 352.00,1.00
             352.00,1.00 353.00,31.00 353.00,31.00
             353.00,31.00 353.00,0.00 353.00,0.00 Z
           M 350.00,40.00
           C 350.00,40.00 349.00,40.00 349.00,40.00
             349.00,40.00 350.00,41.00 350.00,41.00
             350.00,41.00 350.00,40.00 350.00,40.00 Z
           M 361.00,41.00
           C 361.00,41.00 360.00,41.00 360.00,41.00
             360.00,41.00 361.00,42.00 361.00,42.00
             361.00,42.00 361.00,41.00 361.00,41.00 Z
           M 652.00,111.00
           C 652.00,111.00 651.00,111.00 651.00,111.00
             651.00,111.00 652.00,112.00 652.00,112.00
             652.00,112.00 652.00,111.00 652.00,111.00 Z
           M 653.00,113.00
           C 653.00,113.00 652.00,113.00 652.00,113.00
             652.00,113.00 653.00,114.00 653.00,114.00
             653.00,114.00 653.00,113.00 653.00,113.00 Z
           M 645.00,114.00
           C 645.00,114.00 644.00,114.00 644.00,114.00
             644.00,114.00 645.00,115.00 645.00,115.00
             645.00,115.00 645.00,114.00 645.00,114.00 Z
           M 708.00,115.00
           C 708.00,115.00 707.00,115.00 707.00,115.00
             707.00,115.00 708.00,116.00 708.00,116.00
             708.00,116.00 708.00,115.00 708.00,115.00 Z
           M 439.00,117.00
           C 437.82,119.98 438.01,121.84 438.00,125.00
             437.99,131.23 437.10,149.20 439.00,154.00
             439.00,154.00 439.00,117.00 439.00,117.00 Z
           M 655.00,117.00
           C 655.00,117.00 654.00,117.00 654.00,117.00
             654.00,117.00 655.00,118.00 655.00,118.00
             655.00,118.00 655.00,117.00 655.00,117.00 Z
           M 817.00,117.00
           C 817.00,117.00 816.00,117.00 816.00,117.00
             816.00,117.00 817.00,118.00 817.00,118.00
             817.00,118.00 817.00,117.00 817.00,117.00 Z
           M 842.00,119.00
           C 842.00,119.00 841.00,119.00 841.00,119.00
             841.00,119.00 842.00,120.00 842.00,120.00
             842.00,120.00 842.00,119.00 842.00,119.00 Z
           M 718.00,120.00
           C 718.00,120.00 717.00,120.00 717.00,120.00
             717.00,120.00 718.00,121.00 718.00,121.00
             718.00,121.00 718.00,120.00 718.00,120.00 Z
           M 719.00,121.00
           C 719.00,121.00 718.00,121.00 718.00,121.00
             718.00,121.00 719.00,122.00 719.00,122.00
             719.00,122.00 719.00,121.00 719.00,121.00 Z
           M 691.00,123.00
           C 691.00,123.00 690.00,123.00 690.00,123.00
             690.00,123.00 691.00,124.00 691.00,124.00
             691.00,124.00 691.00,123.00 691.00,123.00 Z
           M 720.00,123.00
           C 718.47,126.85 718.47,135.15 720.00,139.00
             720.00,139.00 720.00,123.00 720.00,123.00 Z
           M 690.00,124.00
           C 690.00,124.00 689.00,124.00 689.00,124.00
             689.00,124.00 690.00,125.00 690.00,125.00
             690.00,125.00 690.00,124.00 690.00,124.00 Z
           M 591.00,125.00
           C 591.00,125.00 583.00,126.00 583.00,126.00
             583.00,126.00 591.00,125.00 591.00,125.00 Z
           M 686.00,129.00
           C 684.44,132.93 684.44,143.07 686.00,147.00
             686.00,147.00 686.00,129.00 686.00,129.00 Z
           M 283.00,130.00
           C 283.00,130.00 282.00,130.00 282.00,130.00
             282.00,130.00 283.00,131.00 283.00,131.00
             283.00,131.00 283.00,130.00 283.00,130.00 Z
           M 282.00,132.00
           C 282.00,132.00 281.00,132.00 281.00,132.00
             281.00,132.00 282.00,133.00 282.00,133.00
             282.00,133.00 282.00,132.00 282.00,132.00 Z
           M 281.00,133.00
           C 281.00,133.00 280.00,133.00 280.00,133.00
             280.00,133.00 281.00,134.00 281.00,134.00
             281.00,134.00 281.00,133.00 281.00,133.00 Z
           M 309.00,134.00
           C 309.00,134.00 308.00,134.00 308.00,134.00
             308.00,134.00 309.00,135.00 309.00,135.00
             309.00,135.00 309.00,134.00 309.00,134.00 Z
           M 308.00,135.00
           C 308.00,135.00 307.00,135.00 307.00,135.00
             307.00,135.00 308.00,136.00 308.00,136.00
             308.00,136.00 308.00,135.00 308.00,135.00 Z
           M 327.00,135.00
           C 327.00,135.00 326.00,135.00 326.00,135.00
             326.00,135.00 327.00,136.00 327.00,136.00
             327.00,136.00 327.00,135.00 327.00,135.00 Z
           M 386.00,135.00
           C 386.00,135.00 385.00,135.00 385.00,135.00
             385.00,135.00 386.00,136.00 386.00,136.00
             386.00,136.00 386.00,135.00 386.00,135.00 Z
           M 328.00,136.00
           C 328.00,136.00 327.00,136.00 327.00,136.00
             327.00,136.00 328.00,137.00 328.00,137.00
             328.00,137.00 328.00,136.00 328.00,136.00 Z
           M 329.00,137.00
           C 329.00,137.00 328.00,137.00 328.00,137.00
             328.00,137.00 329.00,138.00 329.00,138.00
             329.00,138.00 329.00,137.00 329.00,137.00 Z
           M 602.00,138.00
           C 602.00,138.00 601.00,138.00 601.00,138.00
             601.00,138.00 602.00,139.00 602.00,139.00
             602.00,139.00 602.00,138.00 602.00,138.00 Z
           M 552.00,139.00
           C 552.00,139.00 551.00,139.00 551.00,139.00
             551.00,139.00 552.00,140.00 552.00,140.00
             552.00,140.00 552.00,139.00 552.00,139.00 Z
           M 720.00,140.00
           C 720.00,140.00 719.00,140.00 719.00,140.00
             719.00,140.00 720.00,141.00 720.00,141.00
             720.00,141.00 720.00,140.00 720.00,140.00 Z
           M 394.00,141.00
           C 394.00,141.00 393.00,141.00 393.00,141.00
             393.00,141.00 394.00,142.00 394.00,142.00
             394.00,142.00 394.00,141.00 394.00,141.00 Z
           M 395.00,142.00
           C 395.00,142.00 394.00,142.00 394.00,142.00
             394.00,142.00 395.00,143.00 395.00,143.00
             395.00,143.00 395.00,142.00 395.00,142.00 Z
           M 104.00,144.00
           C 104.00,144.00 103.00,144.00 103.00,144.00
             103.00,144.00 104.00,145.00 104.00,145.00
             104.00,145.00 104.00,144.00 104.00,144.00 Z
           M 395.00,144.00
           C 395.00,144.00 394.00,144.00 394.00,144.00
             394.00,144.00 395.00,145.00 395.00,145.00
             395.00,145.00 395.00,144.00 395.00,144.00 Z
           M 105.00,145.00
           C 105.00,145.00 104.00,145.00 104.00,145.00
             104.00,145.00 105.00,146.00 105.00,146.00
             105.00,146.00 105.00,145.00 105.00,145.00 Z
           M 538.00,145.00
           C 538.00,145.00 537.00,145.00 537.00,145.00
             537.00,145.00 538.00,146.00 538.00,146.00
             538.00,146.00 538.00,145.00 538.00,145.00 Z
           M 772.00,145.00
           C 772.00,145.00 764.00,146.00 764.00,146.00
             764.00,146.00 772.00,145.00 772.00,145.00 Z
           M 798.00,145.00
           C 798.00,145.00 797.00,145.00 797.00,145.00
             797.00,145.00 798.00,146.00 798.00,146.00
             798.00,146.00 798.00,145.00 798.00,145.00 Z
           M 334.00,146.00
           C 334.00,146.00 333.00,146.00 333.00,146.00
             333.00,146.00 334.00,147.00 334.00,147.00
             334.00,147.00 334.00,146.00 334.00,146.00 Z
           M 397.00,149.00
           C 397.00,149.00 396.00,149.00 396.00,149.00
             396.00,149.00 397.00,150.00 397.00,150.00
             397.00,150.00 397.00,149.00 397.00,149.00 Z
           M 100.00,150.00
           C 100.00,150.00 99.00,150.00 99.00,150.00
             99.00,150.00 100.00,151.00 100.00,151.00
             100.00,151.00 100.00,150.00 100.00,150.00 Z
           M 242.00,151.00
           C 242.00,151.00 241.00,151.00 241.00,151.00
             241.00,151.00 242.00,152.00 242.00,152.00
             242.00,152.00 242.00,151.00 242.00,151.00 Z
           M 551.00,151.00
           C 551.00,151.00 550.00,151.00 550.00,151.00
             550.00,151.00 551.00,152.00 551.00,152.00
             551.00,152.00 551.00,151.00 551.00,151.00 Z
           M 500.00,152.00
           C 500.00,152.00 499.00,152.00 499.00,152.00
             499.00,152.00 500.00,153.00 500.00,153.00
             500.00,153.00 500.00,152.00 500.00,152.00 Z
           M 241.00,153.00
           C 241.00,153.00 240.00,153.00 240.00,153.00
             240.00,153.00 241.00,154.00 241.00,154.00
             241.00,154.00 241.00,153.00 241.00,153.00 Z
           M 499.00,153.00
           C 499.00,153.00 498.00,153.00 498.00,153.00
             498.00,153.00 499.00,154.00 499.00,154.00
             499.00,154.00 499.00,153.00 499.00,153.00 Z
           M 240.00,154.00
           C 240.00,154.00 239.00,154.00 239.00,154.00
             239.00,154.00 240.00,155.00 240.00,155.00
             240.00,155.00 240.00,154.00 240.00,154.00 Z
           M 498.00,154.00
           C 498.00,154.00 491.00,156.00 491.00,156.00
             491.00,156.00 498.00,154.00 498.00,154.00 Z
           M 239.00,156.00
           C 239.00,156.00 238.00,156.00 238.00,156.00
             238.00,156.00 239.00,157.00 239.00,157.00
             239.00,157.00 239.00,156.00 239.00,156.00 Z
           M 187.00,157.00
           C 187.00,157.00 186.00,157.00 186.00,157.00
             186.00,157.00 187.00,158.00 187.00,158.00
             187.00,158.00 187.00,157.00 187.00,157.00 Z
           M 237.00,159.00
           C 237.00,159.00 236.00,159.00 236.00,159.00
             236.00,159.00 237.00,160.00 237.00,160.00
             237.00,160.00 237.00,159.00 237.00,159.00 Z
           M 434.00,161.00
           C 432.65,164.41 432.65,167.59 434.00,171.00
             434.00,171.00 434.00,161.00 434.00,161.00 Z
           M 34.00,163.00
           C 34.00,163.00 33.00,163.00 33.00,163.00
             33.00,163.00 34.00,164.00 34.00,164.00
             34.00,164.00 34.00,163.00 34.00,163.00 Z
           M 31.00,164.00
           C 31.00,164.00 30.00,164.00 30.00,164.00
             30.00,164.00 31.00,165.00 31.00,165.00
             31.00,165.00 31.00,164.00 31.00,164.00 Z
           M 25.00,169.00
           C 25.00,169.00 24.00,169.00 24.00,169.00
             24.00,169.00 25.00,170.00 25.00,170.00
             25.00,170.00 25.00,169.00 25.00,169.00 Z
           M 234.00,172.00
           C 234.00,172.00 233.00,172.00 233.00,172.00
             233.00,172.00 234.00,173.00 234.00,173.00
             234.00,173.00 234.00,172.00 234.00,172.00 Z
           M 221.00,173.00
           C 221.00,173.00 220.00,173.00 220.00,173.00
             220.00,173.00 221.00,174.00 221.00,174.00
             221.00,174.00 221.00,173.00 221.00,173.00 Z
           M 435.00,173.00
           C 435.00,173.00 434.00,173.00 434.00,173.00
             434.00,173.00 435.00,174.00 435.00,174.00
             435.00,174.00 435.00,173.00 435.00,173.00 Z
           M 41.00,174.00
           C 41.00,174.00 40.00,174.00 40.00,174.00
             40.00,174.00 41.00,175.00 41.00,175.00
             41.00,175.00 41.00,174.00 41.00,174.00 Z
           M 58.00,174.00
           C 58.00,174.00 57.00,174.00 57.00,174.00
             57.00,174.00 58.00,175.00 58.00,175.00
             58.00,175.00 58.00,174.00 58.00,174.00 Z
           M 59.00,175.00
           C 59.00,175.00 58.00,175.00 58.00,175.00
             58.00,175.00 59.00,176.00 59.00,176.00
             59.00,176.00 59.00,175.00 59.00,175.00 Z
           M 135.00,175.00
           C 135.00,175.00 134.00,175.00 134.00,175.00
             134.00,175.00 135.00,176.00 135.00,176.00
             135.00,176.00 135.00,175.00 135.00,175.00 Z
           M 426.00,175.00
           C 426.00,175.00 425.00,175.00 425.00,175.00
             425.00,175.00 426.00,176.00 426.00,176.00
             426.00,176.00 426.00,175.00 426.00,175.00 Z
           M 36.00,176.00
           C 36.00,176.00 35.00,176.00 35.00,176.00
             35.00,176.00 36.00,177.00 36.00,177.00
             36.00,177.00 36.00,176.00 36.00,176.00 Z
           M 85.00,176.00
           C 85.00,176.00 84.00,176.00 84.00,176.00
             84.00,176.00 85.00,177.00 85.00,177.00
             85.00,177.00 85.00,176.00 85.00,176.00 Z
           M 425.00,176.00
           C 425.00,176.00 424.00,176.00 424.00,176.00
             424.00,176.00 425.00,177.00 425.00,177.00
             425.00,177.00 425.00,176.00 425.00,176.00 Z
           M 110.00,177.00
           C 110.00,177.00 109.00,177.00 109.00,177.00
             109.00,177.00 110.00,178.00 110.00,178.00
             110.00,178.00 110.00,177.00 110.00,177.00 Z
           M 135.00,177.00
           C 135.00,177.00 134.00,177.00 134.00,177.00
             134.00,177.00 135.00,178.00 135.00,178.00
             135.00,178.00 135.00,177.00 135.00,177.00 Z
           M 409.00,179.00
           C 409.00,179.00 408.00,179.00 408.00,179.00
             408.00,179.00 409.00,180.00 409.00,180.00
             409.00,180.00 409.00,179.00 409.00,179.00 Z
           M 422.00,179.00
           C 422.00,179.00 421.00,179.00 421.00,179.00
             421.00,179.00 422.00,180.00 422.00,180.00
             422.00,180.00 422.00,179.00 422.00,179.00 Z
           M 70.00,182.00
           C 70.00,182.00 69.00,182.00 69.00,182.00
             69.00,182.00 70.00,183.00 70.00,183.00
             70.00,183.00 70.00,182.00 70.00,182.00 Z
           M 23.00,184.00
           C 23.00,184.00 22.00,184.00 22.00,184.00
             22.00,184.00 23.00,185.00 23.00,185.00
             23.00,185.00 23.00,184.00 23.00,184.00 Z
           M 68.00,185.00
           C 68.00,185.00 67.00,185.00 67.00,185.00
             67.00,185.00 68.00,186.00 68.00,186.00
             68.00,186.00 68.00,185.00 68.00,185.00 Z
           M 12.00,193.00
           C 12.00,193.00 11.00,193.00 11.00,193.00
             11.00,193.00 12.00,194.00 12.00,194.00
             12.00,194.00 12.00,193.00 12.00,193.00 Z
           M 906.00,201.00
           C 906.00,201.00 905.00,201.00 905.00,201.00
             905.00,201.00 906.00,202.00 906.00,202.00
             906.00,202.00 906.00,201.00 906.00,201.00 Z
           M 857.00,203.00
           C 857.00,203.00 856.00,203.00 856.00,203.00
             856.00,203.00 857.00,204.00 857.00,204.00
             857.00,204.00 857.00,203.00 857.00,203.00 Z
           M 878.00,204.00
           C 878.00,204.00 877.00,204.00 877.00,204.00
             877.00,204.00 878.00,205.00 878.00,205.00
             878.00,205.00 878.00,204.00 878.00,204.00 Z
           M 877.00,205.00
           C 877.00,205.00 876.00,205.00 876.00,205.00
             876.00,205.00 877.00,206.00 877.00,206.00
             877.00,206.00 877.00,205.00 877.00,205.00 Z
           M 935.00,211.00
           C 935.00,211.00 934.00,211.00 934.00,211.00
             934.00,211.00 935.00,212.00 935.00,212.00
             935.00,212.00 935.00,211.00 935.00,211.00 Z
           M 934.00,213.00
           C 934.00,213.00 933.00,213.00 933.00,213.00
             933.00,213.00 934.00,214.00 934.00,214.00
             934.00,214.00 934.00,213.00 934.00,213.00 Z" />
</svg>
